<svg width="48" height="48" viewBox="0 0 48 48" fill="none" xmlns="http://www.w3.org/2000/svg">
<g filter="url(#filter0_d_38_21880)">
<path d="M4 1.53846L4 38.4615C4 39.3026 4.76836 40 5.69492 40C6.62147 40 7.38983 39.3026 7.38983 38.4615L7.38983 1.53846C7.38983 0.697433 6.62147 -3.8147e-06 5.69492 -3.8147e-06C4.76836 -3.8147e-06 4 0.697433 4 1.53846ZM10.9831 36.3282L10.9831 3.65128C10.9831 1.84615 13.1751 0.758972 14.8475 1.74359L42.8475 18.0718C44.3842 18.9744 44.3842 21.0051 42.8475 21.9077L14.8475 38.2359C13.1751 39.2205 10.9831 38.1333 10.9831 36.3282Z" fill="#9EBF27"/>
</g>
<defs>
<filter id="filter0_d_38_21880" x="0" y="0" width="48" height="48" filterUnits="userSpaceOnUse" color-interpolation-filters="sRGB">
<feFlood flood-opacity="0" result="BackgroundImageFix"/>
<feColorMatrix in="SourceAlpha" type="matrix" values="0 0 0 0 0 0 0 0 0 0 0 0 0 0 0 0 0 0 127 0" result="hardAlpha"/>
<feOffset dy="4"/>
<feGaussianBlur stdDeviation="2"/>
<feComposite in2="hardAlpha" operator="out"/>
<feColorMatrix type="matrix" values="0 0 0 0 0 0 0 0 0 0 0 0 0 0 0 0 0 0 0.25 0"/>
<feBlend mode="normal" in2="BackgroundImageFix" result="effect1_dropShadow_38_21880"/>
<feBlend mode="normal" in="SourceGraphic" in2="effect1_dropShadow_38_21880" result="shape"/>
</filter>
</defs>
</svg>
