<svg width="18" height="18" viewBox="0 0 18 18" fill="none" xmlns="http://www.w3.org/2000/svg">
<path d="M12.995 10.9508C14.0929 11.1347 15.303 10.9428 16.1525 10.3748C17.2825 9.62292 17.2825 8.39108 16.1525 7.63917C15.295 7.07124 14.0689 6.87927 12.9709 7.07124M5.00501 10.9508C3.90709 11.1347 2.69697 10.9428 1.84748 10.3748C0.717506 9.62292 0.717506 8.39108 1.84748 7.63917C2.70498 7.07124 3.93113 6.87927 5.02905 7.07124M13.8204 5.12748C13.77 5.11948 13.7186 5.11948 13.6682 5.12748C13.1333 5.10818 12.627 4.88208 12.2561 4.49697C11.8852 4.11186 11.6789 3.59792 11.6807 3.06374C11.6807 1.91988 12.6023 1 13.7483 1C14.2967 1 14.8226 1.21743 15.2103 1.60446C15.5981 1.99148 15.8159 2.5164 15.8159 3.06374C15.8145 3.59829 15.606 4.11158 15.234 4.49621C14.8621 4.88085 14.3556 5.10705 13.8204 5.12748ZM4.17956 5.12748C4.22765 5.11948 4.28375 5.11948 4.33183 5.12748C4.86666 5.10818 5.37302 4.88208 5.7439 4.49697C6.11477 4.11186 6.32111 3.59792 6.31931 3.06374C6.31931 1.91988 5.3977 1 4.25169 1C3.70332 1 3.17742 1.21743 2.78966 1.60446C2.40191 1.99148 2.18407 2.5164 2.18407 3.06374C2.19209 4.1836 3.07363 5.08749 4.17956 5.12748ZM9.01202 11.1027C8.96158 11.0947 8.91019 11.0947 8.85976 11.1027C8.32493 11.0834 7.81857 10.8573 7.44769 10.4722C7.07681 10.0871 6.87047 9.57317 6.87228 9.039C6.87228 7.89514 7.79389 6.97525 8.93989 6.97525C9.48826 6.97525 10.0142 7.19268 10.4019 7.57971C10.7897 7.96674 11.0075 8.49166 11.0075 9.039C10.9995 10.1589 10.118 11.0707 9.01202 11.1027ZM6.67994 13.6224C5.54996 14.3743 5.54996 15.6062 6.67994 16.3581C7.96218 17.214 10.0619 17.214 11.3441 16.3581C12.4741 15.6062 12.4741 14.3743 11.3441 13.6224C10.0699 12.7745 7.96218 12.7745 6.67994 13.6224Z" stroke="#FEFEFE" stroke-width="1.5" stroke-linecap="round" stroke-linejoin="round"/>
</svg>
