<svg width="19" height="20" viewBox="0 0 19 20" fill="none" xmlns="http://www.w3.org/2000/svg">
<path d="M19 6.02V11.9C19 12.24 18.67 12.48 18.35 12.38L14.42 11.16C13.8934 10.9957 13.3319 10.9788 12.7964 11.1111C12.2609 11.2433 11.7718 11.5198 11.3823 11.9103C10.9928 12.3009 10.7176 12.7907 10.5868 13.3265C10.4559 13.8624 10.4743 14.4239 10.64 14.95L11.85 18.85C11.95 19.17 11.71 19.5 11.37 19.5H5.52C2.07 19.5 0 17.44 0 13.98V6.02C0 2.56 2.07 0.5 5.52 0.5H13.48C16.93 0.5 19 2.56 19 6.02Z" fill="white"/>
<path d="M13.48 19.5L7.6 19.5C7.26 19.5 7.02 19.17 7.12 18.85L8.34 14.92C8.50428 14.3934 8.52121 13.8319 8.38894 13.2964C8.25666 12.7609 7.98025 12.2718 7.58969 11.8823C7.19912 11.4928 6.70934 11.2176 6.17347 11.0868C5.63761 10.9559 5.07614 10.9743 4.55 11.14L0.65 12.35C0.33 12.45 0 12.21 0 11.87L0 6.02C0 2.57 2.06 0.5 5.52 0.5L13.48 0.5C16.94 0.5 19 2.57 19 6.02L19 13.98C19 17.43 16.94 19.5 13.48 19.5Z" fill="white"/>
</svg>
